<svg viewBox="0 0 100 100" xmlns="http://www.w3.org/2000/svg" id="Plane-Hi-Sign--Streamline-Ux.svg" height="100" width="100"><desc>Plane Hi Sign Streamline Illustration: https://streamlinehq.com</desc><path d="M4.227 50a40 40 0 1 0 80 0 40 40 0 1 0 -80 0Z" fill="#b8ecff" stroke="#b8ecff" stroke-width="1"></path><path d="M59.215 62.87a2 2 0 0 1 -1.275 1.864c-15.035 5.859 -26.333 0.985 -36.384 0.7a41.623 41.623 0 0 0 -16.565 3.34 2 2 0 0 1 -2.768 -1.847V37.191a2 2 0 0 1 1.151 -1.812 42.422 42.422 0 0 1 18.182 -4.053c9.744 0.274 20.644 4.816 34.994 -0.235a2 2 0 0 1 2.665 1.887Z" fill="#009fd9" stroke="#6dd627" stroke-width="1"></path><path d="M43.323 33.457c-8.229 0.141 -15.259 -1.947 -21.767 -2.131a42.422 42.422 0 0 0 -18.182 4.053 2 2 0 0 0 -1.151 1.812v29.736a2 2 0 0 0 2.768 1.847 46.653 46.653 0 0 1 4.651 -1.651l33.68 -33.68" fill="#00b8f0" stroke-width="1"></path><path d="M59.215 62.87a2 2 0 0 1 -1.275 1.864c-15.035 5.859 -26.333 0.985 -36.384 0.7a41.623 41.623 0 0 0 -16.565 3.34 2 2 0 0 1 -2.768 -1.847V37.191a2 2 0 0 1 1.151 -1.812 42.422 42.422 0 0 1 18.182 -4.053c9.744 0.274 20.644 4.816 34.994 -0.235a2 2 0 0 1 2.665 1.887Z" fill="none" stroke="#45413c" stroke-linecap="round" stroke-linejoin="round" stroke-width="1"></path><path d="m78.049 47.673 -3.43 0.332a1.1 1.1 0 0 1 -1.111 -0.7l-1.452 -2.926a1.4 1.4 0 0 0 -2.657 0.551l-0.309 6.046a1.106 1.106 0 0 0 0.845 1.038l7.606 1.752c0.7 0.157 1.408 0.29 2.124 0.383l6.47 0.134 7.665 -0.211a2 2 0 0 0 1.944 -2v-3a2 2 0 0 0 -2.086 -2Z" fill="#ff6242" stroke-width="1"></path><path d="M95.744 49.906v-0.824a2 2 0 0 0 -2.086 -2l-15.609 0.59 -3.43 0.332a1.1 1.1 0 0 1 -1.111 -0.7l-1.452 -2.926a1.4 1.4 0 0 0 -2.657 0.551l-0.274 5.371Z" fill="#ff6242" stroke-width="1"></path><path d="m78.049 47.673 -3.43 0.332a1.1 1.1 0 0 1 -1.111 -0.7l-1.452 -2.926a1.4 1.4 0 0 0 -2.657 0.551l-0.309 6.046a1.106 1.106 0 0 0 0.845 1.038l7.606 1.752c0.7 0.157 1.408 0.29 2.124 0.383l6.47 0.134 7.665 -0.211a2 2 0 0 0 1.944 -2v-3a2 2 0 0 0 -2.086 -2Z" fill="none" stroke="#45413c" stroke-linecap="round" stroke-linejoin="round" stroke-width="1"></path><path d="M81.165 59.67a1.862 1.862 0 0 1 -1.419 0.714l-0.413 0.011a1.241 1.241 0 0 1 -1.147 -1.785l2.957 -6.062a1.37 1.37 0 0 1 1.195 -0.769l3.527 -0.094a0.741 0.741 0 0 1 0.6 1.2Z" fill="#ff6242" stroke="#45413c" stroke-linecap="round" stroke-linejoin="round" stroke-width="1"></path><path d="m95.744 50.594 2.033 0" fill="none" stroke="#45413c" stroke-linecap="round" stroke-linejoin="round" stroke-width="1"></path><path d="m97.777 46.792 0 7.604" fill="none" stroke="#45413c" stroke-linecap="round" stroke-linejoin="round" stroke-width="1"></path><path d="M89.057 47.257a5 5 0 0 0 -4.694 -2.718 6.032 6.032 0 0 0 -3.391 1.25l-2.416 1.865Z" fill="#4acfff" stroke="#45413c" stroke-linecap="round" stroke-linejoin="round" stroke-width="1"></path><path d="m59.215 41.943 9.945 7.665 -9.945 8.085" fill="none" stroke="#45413c" stroke-linecap="round" stroke-linejoin="round" stroke-width="1"></path><path d="M67.782 76.59a2.966 2.966 0 0 0 -1.077 0.208 4.968 4.968 0 0 0 -9.816 0 2.99 2.99 0 1 0 -1.077 5.777h11.97a2.993 2.993 0 1 0 0 -5.985Z" fill="#ffffff" stroke="#45413c" stroke-linecap="round" stroke-linejoin="round" stroke-width="1"></path><path d="M42.043 14.262a2.987 2.987 0 0 0 -1.077 0.208 4.968 4.968 0 0 0 -9.816 0 2.99 2.99 0 1 0 -1.077 5.777h11.97a2.993 2.993 0 1 0 0 -5.985Z" fill="#ffffff" stroke="#45413c" stroke-linecap="round" stroke-linejoin="round" stroke-width="1"></path><path d="m92.746 47.118 0.912 -0.034a2 2 0 0 1 2.086 2v3a2 2 0 0 1 -1.944 2l-1.054 0.029Z" fill="#adc4d9" stroke="#45413c" stroke-linecap="round" stroke-linejoin="round" stroke-width="1"></path><path d="M25.822 61.366a2.432 2.432 0 0 1 -2.43 -2.43v-6.268l-6.338 -0.744v6.04a2.43 2.43 0 1 1 -4.86 0V39.651a2.43 2.43 0 0 1 4.86 0v7.4l6.338 0.744v-7.172a2.43 2.43 0 0 1 4.86 0v18.313a2.433 2.433 0 0 1 -2.43 2.43Z" fill="#ffffff" stroke="#00658a" stroke-linejoin="round" stroke-width="1"></path><path d="M34.318 61.354a2.433 2.433 0 0 1 -2.43 -2.43V46.368a2.43 2.43 0 0 1 4.86 0v12.556a2.433 2.433 0 0 1 -2.43 2.43Z" fill="#ffffff" stroke="#00658a" stroke-linejoin="round" stroke-width="1"></path><path d="M31.318 39.556a3 3 0 1 0 6 0 3 3 0 1 0 -6 0Z" fill="#ffffff" stroke="#00658a" stroke-linejoin="round" stroke-width="1"></path><path d="M47.031 61.57a2.841 2.841 0 1 1 2.841 -2.841 2.844 2.844 0 0 1 -2.841 2.841Z" fill="#ffffff" stroke="#00658a" stroke-linejoin="round" stroke-width="1"></path><path d="M47.031 54.283a1.378 1.378 0 0 1 -1.337 -1.041l-1.256 -4.951c-0.841 -3.315 -1.095 -4.316 -1.158 -4.694l-0.017 0a3.788 3.788 0 1 1 7.537 0l-0.015 0c-0.055 0.337 -0.273 1.195 -0.977 3.974l-1.441 5.676a1.376 1.376 0 0 1 -1.336 1.036Z" fill="#ffffff" stroke="#00658a" stroke-linejoin="round" stroke-width="1"></path></svg>